<?xml version="1.0" encoding="UTF-8"?>
<svg id="Layer_1" data-name="Layer 1" xmlns="http://www.w3.org/2000/svg" version="1.1" viewBox="0 0 216 216">
  <defs>
    <style>
      .cls-1 {
        fill: #fff;
        stroke-width: 0px;
      }
    </style>
  </defs>
  <path class="cls-1" d="M112.8,182.1c7.1,0,14.2,0,21.3,0,18.8,0,37.6,0,56.3,0,3.6,0,6.3,1.6,7.5,4.6,1.2,2.9.5,5.9-1.8,8.1-1.3,1.3-2.9,1.9-4.8,2-.6,0-1.2,0-1.8,0-43.1,0-86.1,0-129.2,0-3.1,0-5.5-1-7.7-3.2-10.8-10.9-21.6-21.7-32.5-32.5-9.3-9.3-9.3-22.8,0-32.1C54.5,94.7,88.8,60.4,123.2,26c9.2-9.2,22.8-9.2,32,0,13.5,13.5,27.1,27.1,40.6,40.6,9.3,9.3,9.3,22.8,0,32.2-27.6,27.6-55.1,55.1-82.7,82.6-.1.1-.3.2-.5.3,0,.1.1.3.2.4ZM87.3,82.5c17.5,17.5,34.7,34.7,52,52,.2-.2.5-.4.8-.7,15.1-15.1,30.2-30.2,45.4-45.4,3.5-3.5,3.5-7.8,0-11.4-13.5-13.5-26.9-26.9-40.4-40.4-.6-.6-1.3-1.2-2-1.7-3.1-1.9-6.6-1.4-9.5,1.5-15.2,15.2-30.4,30.4-45.6,45.6-.2.2-.5.3-.7.5Z"/>
  <path class="cls-1" d="M145.8,83.2l14.3-14.3c2-2,2-5.1,0-7.1-2-2-5.1-2-7.1,0l-14.3,14.3-14.3-14.3c-2-2-5.1-2-7.1,0-2,2-2,5.1,0,7.1l14.3,14.3-14.3,14.3c-2,2-2,5.1,0,7.1,1,1,2.3,1.5,3.5,1.5s2.6-.5,3.5-1.5l14.3-14.3,14.3,14.3c1,1,2.3,1.5,3.5,1.5s2.6-.5,3.5-1.5c2-2,2-5.1,0-7.1l-14.3-14.3Z"/>
</svg>