<?xml version="1.0" encoding="UTF-8"?>
<svg id="Layer_1" data-name="Layer 1" xmlns="http://www.w3.org/2000/svg" version="1.1" viewBox="0 0 216 216">
  <defs>
    <style>
      .cls-1 {
        fill: #fff;
        stroke-width: 0px;
      }
    </style>
  </defs>
  <path class="cls-1" d="M7.4,83.5c.7-2.9,2.3-5.2,5.3-6.1.9-.3,1.9-.4,2.9-.4,8.4,0,16.8,0,25.1,0,.6,0,1.3-.3,1.7-.6,12.8-12.5,25.5-25,38.3-37.5,4-3.9,7.9-7.8,11.9-11.6,1.3-1.2,2.9-2.4,4.5-3.1,5-2.2,9.7.4,10.7,5.7.2,1,.3,2,.3,3,0,49.7,0,99.4,0,149.1,0,2.5-.3,4.9-1.5,7.1-1.9,3.6-5.7,4.9-9.3,3-1.8-.9-3.5-2.1-4.9-3.5-10.9-10.6-21.7-21.2-32.5-31.9-5.8-5.7-11.6-11.4-17.4-17-.4-.4-1-.6-1.6-.6-8,0-16-.1-24,0-4.8,0-8.1-1.7-9.4-6.5v-48.9Z"/>
</svg>