<?xml version="1.0" encoding="UTF-8"?>
<svg id="Layer_1" data-name="Layer 1" xmlns="http://www.w3.org/2000/svg" version="1.1" viewBox="0 0 1024 1024">
  <defs>
    <style>
      .cls-1 {
        fill: none;
        stroke: #000;
        stroke-miterlimit: 10;
        stroke-width: 16px;
      }

      .cls-2 {
        fill: #000;
      }

      .cls-2, .cls-3 {
        stroke-width: 0px;
      }

      .cls-3 {
        fill: #fff;
      }

      .cls-4 {
        display: none;
      }
    </style>
  </defs>
  <g id="Layer_1-2" data-name="Layer 1" class="cls-4">
    <path class="cls-2" d="M662.3,693.3l-169.2,96-113.2-68.4-37.3-23.2,13.9-25.1,34.2,19.5v-349c0-17.8-5.4-30.3-36-39.5v-10.8l122.2-86.3h14.4v254.6l94.5-61.7,76.5,71.6v222.2h0ZM491.3,485.8v195.3l78.8,46.1v-216.4l-45-47-33.8,22Z"/>
    <path class="cls-2" d="M662.3,693.3l-169.2,96-113.2-68.4-28.8,18-10.8-14.4,50.3-32.4v-349c0-17.8-5.4-30.3-36-39.5v-10.8l122.2-86.3h14.4v254.6l94.5-61.7,76.5,71.6v222.2h0ZM491.3,485.8v195.3l78.8,46.1v-216.4l-45-47-33.8,22Z"/>
    <path class="cls-2" d="M662.3,693.3l-169.2,96-113.2-68.4-11.4,6.3-10.8-14.4,32.9-20.7v-349c0-17.8-5.4-30.3-36-39.5v-10.8l122.2-86.3h14.4v254.6l94.5-61.7,76.5,71.6v222.2h0ZM491.3,485.8v195.3l78.8,46.1v-216.4l-45-47-33.8,22Z"/>
    <line class="cls-1" x1="518.2" y1="642.2" x2="362" y2="547.9"/>
    <line class="cls-1" x1="518.2" y1="580.9" x2="362" y2="486.6"/>
    <path class="cls-2" d="M390.6,692.2v-349c0-17.8-5.4-30.3-36-39.5v-10.8l122.2-86.3h14.4v254.6l94.5-61.7,76.5,71.6v222.2l-169.2,96-102.4-61.8v-35.3h0ZM491.3,485.8v195.3l78.8,46.1v-216.4l-45-47-33.8,22Z"/>
    <rect class="cls-3" x="235.8" y="662.2" width="154.8" height="130.1"/>
    <line class="cls-1" x1="362" y1="670.2" x2="518.2" y2="575.9"/>
    <line class="cls-1" x1="362" y1="608.9" x2="518.2" y2="514.6"/>
  </g>
  <g id="Layer_2" data-name="Layer 2">
    <path class="cls-3" d="M394.1,706.3v-349c0-17.8-5.4-30.3-36-39.5v-10.8l122.2-86.3h14.4v254.6l94.5-61.7,76.5,71.6v222.2l-169.2,96-102.4-61.8v-35.3h0ZM494.8,499.9v195.3l78.8,46.1v-216.4l-45-47-33.8,22Z"/>
  </g>
</svg>