<?xml version="1.0" encoding="UTF-8"?>
<svg id="Layer_1" data-name="Layer 1" xmlns="http://www.w3.org/2000/svg" version="1.1" viewBox="0 0 216 216">
  <defs>
    <style>
      .cls-1 {
        fill: #fff;
        stroke-width: 0px;
      }
    </style>
  </defs>
  <path class="cls-1" d="M7.4,83.5c.7-2.9,2.3-5.2,5.3-6.1.9-.3,1.9-.4,2.9-.4,8.4,0,16.8,0,25.1,0,.6,0,1.3-.3,1.7-.6,12.8-12.5,25.5-25,38.3-37.5,4-3.9,7.9-7.8,11.9-11.6,1.3-1.2,2.9-2.4,4.5-3.1,5-2.2,9.7.4,10.7,5.7.2,1,.3,2,.3,3,0,49.7,0,99.4,0,149.1,0,2.5-.3,4.9-1.5,7.1-1.9,3.6-5.7,4.9-9.3,3-1.8-.9-3.5-2.1-4.9-3.5-10.9-10.6-21.7-21.2-32.5-31.9-5.8-5.7-11.6-11.4-17.4-17-.4-.4-1-.6-1.6-.6-8,0-16-.1-24,0-4.8,0-8.1-1.7-9.4-6.5v-48.9Z"/>
  <path class="cls-1" d="M208.6,107c0,16.2-3.9,30.4-11.6,43.6-8.4,14.4-20.2,25.3-34.9,33-1.7.9-3.4,1.6-5.3,1.4-3.7-.4-6.3-2.8-7-6.4-.6-3.4,1.1-6.8,4.4-8.3,9.1-4.3,16.7-10.4,23.1-18.1,9.5-11.5,14.7-24.7,15.7-39.6,1-14.6-2.2-28.2-9.8-40.7-6.9-11.5-16.5-20.3-28.5-26.3-3.1-1.5-4.8-4.6-4.4-8,.3-3.1,2.8-5.9,6-6.6,1.7-.4,3.4-.1,5,.7,12.8,6.5,23.5,15.5,31.8,27.3,9,12.8,14.1,27,15.3,42.6.2,2.1.2,4.2.3,5.4Z"/>
  <path class="cls-1" d="M177.6,108c-.4,19.6-8,35.8-23.3,48.2-3.1,2.5-6.6,4.6-10,6.6-3.6,2.1-8.4.5-10.4-3.3-2-3.8-.5-8.4,3.3-10.4,6-3.1,11-7.3,15.1-12.6,5.5-7.1,8.7-15.1,9.6-24,1.1-11.2-1.5-21.5-7.8-30.8-4.3-6.4-10-11.3-16.8-15-2.9-1.6-4.4-4.1-4.2-7.4.3-3.4,2.1-5.7,5.3-6.8,2-.7,3.9-.5,5.8.5,12.8,6.8,22.2,16.8,28.1,30,3.2,7.2,4.9,14.8,5.1,22.6,0,.7,0,1.5,0,2.2Z"/>
  <path class="cls-1" d="M146.8,107.9c0,13.6-9.4,26-22.5,29.7-4.3,1.2-8.1-.3-9.8-4.1-2-4.4.3-9.3,5-10.7,4.2-1.2,7.5-3.6,9.7-7.4,4.9-8.4.6-19.6-8.7-22.4-1.8-.5-3.6-1.1-4.9-2.5-2-2.2-2.6-4.7-1.8-7.5.8-2.9,2.8-4.7,5.7-5.3,2.6-.5,5.2.3,7.6,1.3,10.9,4.7,17.4,12.8,19.4,24.5.2,1.4.3,2.9.4,4.3Z"/>
</svg>